<mxfile host="65bd71144e">
    <diagram id="rfjSN9cdk0lPBWMgBJ06" name="Page-1">
        <mxGraphModel dx="1844" dy="890" grid="1" gridSize="10" guides="1" tooltips="1" connect="1" arrows="1" fold="1" page="1" pageScale="1" pageWidth="850" pageHeight="1100" math="0" shadow="0">
            <root>
                <mxCell id="0"/>
                <mxCell id="1" parent="0"/>
                <mxCell id="zSOSA6TjUo3DJ6Rty31Y-2" value="" style="rounded=0;whiteSpace=wrap;html=1;" parent="1" vertex="1">
                    <mxGeometry x="200" y="90" width="490" height="400" as="geometry"/>
                </mxCell>
                <mxCell id="zSOSA6TjUo3DJ6Rty31Y-3" value="Customer" style="shape=umlActor;verticalLabelPosition=bottom;verticalAlign=top;html=1;outlineConnect=0;" parent="1" vertex="1">
                    <mxGeometry x="120" y="180" width="30" height="60" as="geometry"/>
                </mxCell>
                <mxCell id="zSOSA6TjUo3DJ6Rty31Y-4" value="Cashier" style="shape=umlActor;verticalLabelPosition=bottom;verticalAlign=top;html=1;outlineConnect=0;" parent="1" vertex="1">
                    <mxGeometry x="110" y="370" width="30" height="60" as="geometry"/>
                </mxCell>
                <mxCell id="zSOSA6TjUo3DJ6Rty31Y-5" value="Manager" style="shape=umlActor;verticalLabelPosition=bottom;verticalAlign=top;html=1;outlineConnect=0;" parent="1" vertex="1">
                    <mxGeometry x="730" y="180" width="30" height="60" as="geometry"/>
                </mxCell>
                <mxCell id="zSOSA6TjUo3DJ6Rty31Y-7" value="Log in" style="ellipse;whiteSpace=wrap;html=1;" parent="1" vertex="1">
                    <mxGeometry x="267.5" y="390" width="140" height="70" as="geometry"/>
                </mxCell>
                <mxCell id="zSOSA6TjUo3DJ6Rty31Y-9" value="Add funds" style="ellipse;whiteSpace=wrap;html=1;" parent="1" vertex="1">
                    <mxGeometry x="407.5" y="150" width="140" height="70" as="geometry"/>
                </mxCell>
                <mxCell id="zSOSA6TjUo3DJ6Rty31Y-17" value="Check Balance" style="ellipse;whiteSpace=wrap;html=1;" parent="1" vertex="1">
                    <mxGeometry x="500" y="280" width="140" height="70" as="geometry"/>
                </mxCell>
                <mxCell id="zSOSA6TjUo3DJ6Rty31Y-20" value="Dan's Frappuccino Hell System - Funds" style="text;html=1;strokeColor=none;fillColor=none;align=center;verticalAlign=middle;whiteSpace=wrap;rounded=0;" parent="1" vertex="1">
                    <mxGeometry x="380" y="110" width="130" height="30" as="geometry"/>
                </mxCell>
                <mxCell id="zSOSA6TjUo3DJ6Rty31Y-23" value="" style="endArrow=classic;html=1;rounded=0;" parent="1" source="zSOSA6TjUo3DJ6Rty31Y-3" target="zSOSA6TjUo3DJ6Rty31Y-9" edge="1">
                    <mxGeometry width="50" height="50" relative="1" as="geometry">
                        <mxPoint x="410" y="530" as="sourcePoint"/>
                        <mxPoint x="460" y="480" as="targetPoint"/>
                    </mxGeometry>
                </mxCell>
                <mxCell id="zSOSA6TjUo3DJ6Rty31Y-31" value="" style="endArrow=classic;html=1;rounded=0;" parent="1" source="zSOSA6TjUo3DJ6Rty31Y-5" target="zSOSA6TjUo3DJ6Rty31Y-9" edge="1">
                    <mxGeometry width="50" height="50" relative="1" as="geometry">
                        <mxPoint x="740" y="390" as="sourcePoint"/>
                        <mxPoint x="790" y="340" as="targetPoint"/>
                    </mxGeometry>
                </mxCell>
                <mxCell id="zSOSA6TjUo3DJ6Rty31Y-34" value="" style="endArrow=classic;html=1;rounded=0;" parent="1" source="zSOSA6TjUo3DJ6Rty31Y-4" target="zSOSA6TjUo3DJ6Rty31Y-9" edge="1">
                    <mxGeometry width="50" height="50" relative="1" as="geometry">
                        <mxPoint x="100" y="410" as="sourcePoint"/>
                        <mxPoint x="150" y="360" as="targetPoint"/>
                    </mxGeometry>
                </mxCell>
                <mxCell id="zSOSA6TjUo3DJ6Rty31Y-35" value="&amp;lt;&amp;lt;extends&amp;gt;&amp;gt;" style="endArrow=open;endSize=12;dashed=1;html=1;rounded=0;" parent="1" source="zSOSA6TjUo3DJ6Rty31Y-17" target="zSOSA6TjUo3DJ6Rty31Y-9" edge="1">
                    <mxGeometry width="160" relative="1" as="geometry">
                        <mxPoint x="340" y="330" as="sourcePoint"/>
                        <mxPoint x="500" y="330" as="targetPoint"/>
                        <Array as="points"/>
                    </mxGeometry>
                </mxCell>
                <mxCell id="zSOSA6TjUo3DJ6Rty31Y-40" value="&amp;lt;&amp;lt;include&amp;gt;&amp;gt;" style="endArrow=open;endSize=12;dashed=1;html=1;rounded=0;" parent="1" source="zSOSA6TjUo3DJ6Rty31Y-9" target="zSOSA6TjUo3DJ6Rty31Y-7" edge="1">
                    <mxGeometry width="160" relative="1" as="geometry">
                        <mxPoint x="316.30511787008095" y="443.77913389890955" as="sourcePoint"/>
                        <mxPoint x="358.7837837837858" y="436.351351351351" as="targetPoint"/>
                        <Array as="points"/>
                    </mxGeometry>
                </mxCell>
            </root>
        </mxGraphModel>
    </diagram>
</mxfile>